<svg width="415" height="243" viewBox="0 0 415 243" fill="none" xmlns="http://www.w3.org/2000/svg">
<path d="M338.342 166.328H284.808C279.595 166.328 275.352 162.091 275.352 156.881C275.352 151.671 279.593 147.434 284.808 147.434H338.342C343.555 147.434 347.798 151.671 347.798 156.881C347.796 162.089 343.555 166.328 338.342 166.328ZM284.808 148.066C279.943 148.066 275.985 152.02 275.985 156.881C275.985 161.741 279.943 165.695 284.808 165.695H338.342C343.207 165.695 347.165 161.741 347.165 156.881C347.165 152.02 343.207 148.066 338.342 148.066H284.808Z" fill="#BDE6FA"/>
<path d="M348.241 149.748H316.283C313.203 149.748 310.41 148.543 308.417 146.355C306.413 144.153 305.471 141.235 305.767 138.138L311.656 76.3633C312.264 69.9949 317.944 64.8125 324.32 64.8125H356.28C359.36 64.8125 362.153 66.017 364.145 68.2058C366.149 70.4075 367.092 73.3253 366.796 76.4225L360.906 138.197C360.297 144.565 354.617 149.748 348.241 149.748ZM324.318 65.4434C318.26 65.4434 312.862 70.3687 312.284 76.4207L306.397 138.197C306.119 141.113 307.002 143.859 308.886 145.927C310.756 147.983 313.384 149.115 316.283 149.115H348.242C354.3 149.115 359.699 144.19 360.277 138.138L366.166 76.3633C366.444 73.4474 365.56 70.7017 363.677 68.6313C361.806 66.5757 359.178 65.4434 356.28 65.4434H324.318Z" fill="#BDE6FA"/>
<path d="M409.356 126.336H355.756V228.597H409.356V126.336Z" fill="#54BAED"/>
<path d="M414.368 119.98H350.743V126.98H414.368V119.98Z" fill="#54BAED"/>
<path fill-rule="evenodd" clip-rule="evenodd" d="M361.342 154.242H403.771V135.137H361.342V154.242ZM404.152 155.005H360.96H360.578V154.624V134.756V134.375H360.96H404.152H404.534V134.756V154.624V155.005H404.152Z" fill="#064C6F"/>
<path d="M397.09 137.812H368.023V140.54H397.09V137.812Z" fill="#E6E8F6"/>
<path d="M380.23 111.301H374.198V119.978H380.23V111.301Z" fill="white"/>
<path d="M380.919 107.602H373.509V111.304H380.919V107.602Z" fill="#8FB2EE"/>
<path d="M379.321 112.672H375.107V118.605H379.321V112.672Z" fill="#E6E8F6"/>
<path d="M399.783 112.562H381.728V119.978H399.783V112.562Z" fill="#E9B0B8"/>
<path d="M399.783 114.344H381.728V115.902H399.783V114.344Z" fill="white"/>
<path fill-rule="evenodd" clip-rule="evenodd" d="M404.556 106.934H408.038C409.265 106.934 410.269 107.936 410.269 109.163V118.862C410.269 119.474 409.767 119.978 409.154 119.978H403.439C402.824 119.978 402.322 119.476 402.322 118.862V109.163C402.322 107.936 403.328 106.934 404.556 106.934Z" fill="#E6E8F6"/>
<path d="M407.604 105.777H404.991V107.938H407.604V105.777Z" fill="#E6E8F6"/>
<path fill-rule="evenodd" clip-rule="evenodd" d="M405.021 103.215H407.575C407.823 103.215 408.027 103.418 408.027 103.666V105.75C408.027 105.998 407.823 106.199 407.575 106.199H405.021C404.773 106.199 404.569 105.996 404.569 105.75V103.666C404.569 103.418 404.773 103.215 405.021 103.215Z" fill="#8FB2EE"/>
<path d="M408.819 110.047H403.772V118.445H408.819V110.047Z" fill="white"/>
<path d="M408.819 110.891H403.772V112.441H408.819V110.891Z" fill="#8FB2EE"/>
<path fill-rule="evenodd" clip-rule="evenodd" d="M361.342 185.567C375.485 185.567 389.629 185.567 403.771 185.567C403.771 179.198 403.771 172.83 403.771 166.461C389.627 166.461 375.483 166.461 361.342 166.461C361.342 172.83 361.342 179.198 361.342 185.567ZM404.152 186.329C389.755 186.329 375.357 186.329 360.96 186.329C360.832 186.329 360.706 186.329 360.578 186.329C360.578 186.201 360.578 186.075 360.578 185.948C360.578 179.324 360.578 172.702 360.578 166.08C360.578 165.953 360.578 165.827 360.578 165.699C360.706 165.699 360.832 165.699 360.96 165.699C375.357 165.699 389.755 165.699 404.152 165.699C404.28 165.699 404.406 165.699 404.534 165.699C404.534 165.827 404.534 165.953 404.534 166.08C404.534 172.702 404.534 179.326 404.534 185.948C404.534 186.075 404.534 186.201 404.534 186.329C404.406 186.329 404.28 186.329 404.152 186.329Z" fill="#064C6F"/>
<path fill-rule="evenodd" clip-rule="evenodd" d="M368.023 169.137C377.711 169.137 387.401 169.137 397.09 169.137C397.09 170.045 397.09 170.954 397.09 171.864C387.401 171.864 377.713 171.864 368.023 171.864C368.023 170.954 368.023 170.045 368.023 169.137Z" fill="#E6E8F6"/>
<path fill-rule="evenodd" clip-rule="evenodd" d="M361.342 216.891H403.771V197.786H361.342V216.891ZM404.152 217.653H360.96H360.578V217.272V197.405V197.023H360.96H404.152H404.534V197.405V217.272V217.653H404.152Z" fill="#064C6F"/>
<path d="M397.09 200.461H368.023V203.188H397.09V200.461Z" fill="#E6E8F6"/>
<path fill-rule="evenodd" clip-rule="evenodd" d="M364.057 228.594L360.401 242.37H355.756V228.594H364.057Z" fill="#54BAED"/>
<path fill-rule="evenodd" clip-rule="evenodd" d="M401.056 228.594L404.711 242.37H409.356V228.594H401.056Z" fill="#E6E8F6"/>
<path d="M414.37 127.294H350.428V119.977H351.059V126.661H414.37V127.294Z" fill="#064C6F"/>
<path d="M409.356 228.912H355.439V177.465H356.073V228.281H409.356V228.912Z" fill="#064C6F"/>
<path d="M230.091 242.685H224.244V162.938H230.091V242.685ZM224.878 242.054H229.459V163.568H224.878V242.054Z" fill="#064C6F"/>
<path d="M166.179 242.688H160.332V166.539H166.179V242.688ZM160.963 242.057H165.545V167.17H160.963V242.057Z" fill="#BDE6FA"/>
<path d="M237.68 167.17H155.337C154.081 167.17 153.061 165.884 153.061 164.304V160.762C153.061 154.729 156.867 149.82 161.545 149.82H231.476C236.154 149.82 239.96 154.729 239.96 160.762V164.304C239.956 165.884 238.936 167.17 237.68 167.17ZM161.543 150.453C157.215 150.453 153.693 155.079 153.693 160.762V164.304C153.693 165.514 154.446 166.539 155.337 166.539H237.68C238.571 166.539 239.325 165.516 239.325 164.304V160.762C239.325 155.079 235.802 150.453 231.474 150.453H161.543Z" fill="#BDE6FA"/>
<path d="M223.859 136.026H169.159C160.591 136.026 153.62 129.062 153.62 120.503V98.5466C153.62 89.9876 160.591 83.0234 169.159 83.0234H223.859C232.426 83.0234 239.397 89.9876 239.397 98.5466V120.501C239.397 129.062 232.426 136.026 223.859 136.026ZM169.159 83.6544C160.939 83.6544 154.254 90.3354 154.254 98.5466V120.501C154.254 128.712 160.941 135.393 169.159 135.393H223.859C232.078 135.393 238.764 128.712 238.764 120.501V98.5466C238.764 90.3354 232.078 83.6544 223.859 83.6544H169.159Z" fill="#BDE6FA"/>
<path fill-rule="evenodd" clip-rule="evenodd" d="M165.664 131.992C166.225 135.912 165.756 148.969 175.287 150.651C184.817 152.331 212.525 150.138 212.525 150.138H223.222L220.688 130.121L165.664 131.992Z" fill="#229BD8"/>
<path fill-rule="evenodd" clip-rule="evenodd" d="M165.663 131.993L223.617 132.81L222.558 89.1364L224.684 52.0528C216.796 47.6641 206.864 45.3477 195.626 45.3477C184.39 45.3477 174.458 47.6623 166.571 52.0528L168.261 89.1364L165.663 131.993Z" fill="white"/>
<path d="M223.941 133.131L223.611 133.125L165.325 132.302L167.944 89.1327L166.245 51.8696L166.416 51.7752C174.346 47.3625 184.447 45.0312 195.625 45.0312C206.806 45.0312 216.907 47.3625 224.837 51.7752L225.011 51.8715L225 52.0694L222.876 89.1401L223.941 133.131ZM165.999 131.682L223.292 132.49L222.24 89.1308V89.1179L224.355 52.2322C216.545 47.9342 206.617 45.664 195.625 45.664C184.634 45.664 174.703 47.9361 166.894 52.2341L168.575 89.1401L168.573 89.1567L165.999 131.682Z" fill="#064C6F"/>
<path fill-rule="evenodd" clip-rule="evenodd" d="M204.871 45.8831L197.731 58.6365L186.382 45.8831L188.112 26.0156H203.137L204.871 45.8831Z" fill="#F8E4BD"/>
<path fill-rule="evenodd" clip-rule="evenodd" d="M236.645 242.374C236.769 241.449 237.167 239.469 236.065 238.809C235.262 238.328 232.058 238.555 231.565 238.402C230.963 238.215 228.035 233.885 227.45 233.086H221.031L217.79 236.057L216.944 242.376H236.645V242.374Z" fill="#064C6F"/>
<path fill-rule="evenodd" clip-rule="evenodd" d="M208.663 242.374C208.626 241.449 208.678 239.469 207.461 238.809C206.574 238.328 206.015 238.555 205.496 238.402C204.861 238.215 201.176 233.885 200.452 233.086H194.033L191.312 236.057L191.569 242.376H208.663V242.374Z" fill="#064C6F"/>
<path fill-rule="evenodd" clip-rule="evenodd" d="M166.569 52.0508C158.841 54.419 153.348 91.708 153.231 108.619L167.175 109.622C168.408 102.158 170.938 87.7023 170.938 87.7023C170.938 87.7023 171.22 62.7006 166.569 52.0508Z" fill="#F8E4BD"/>
<path fill-rule="evenodd" clip-rule="evenodd" d="M157.406 73.1406C155.019 84.388 153.518 97.6891 153.267 106.639L168.303 102.929C169.529 95.7446 170.936 87.6999 170.936 87.6999C170.936 87.6999 170.992 82.6858 170.636 76.1916L157.406 73.1406Z" fill="#F2CC93"/>
<path fill-rule="evenodd" clip-rule="evenodd" d="M166.569 52.0508C160.821 53.8122 153.589 77.9184 151.237 98.1504L169.51 100.287C170.614 93.5193 170.94 87.7005 170.94 87.7005C170.94 87.7005 171.22 62.7005 166.569 52.0508Z" fill="#BDE6FA"/>
<path d="M168.727 102.929L168.097 102.871C168.125 102.566 170.849 72.1209 166.523 57.7634L167.129 57.582C171.49 72.0562 168.757 102.621 168.727 102.929Z" fill="#064C6F"/>
<path fill-rule="evenodd" clip-rule="evenodd" d="M237.266 143.047L231.45 235.265L211.858 235.822C211.895 207.072 212.506 171.798 212.543 143.045C212.075 133.813 220.818 130.941 225.261 131.607C229.115 132.188 236.78 133.763 237.266 143.047Z" fill="#229BD8"/>
<path fill-rule="evenodd" clip-rule="evenodd" d="M186.912 39.8059C187.24 36.0444 187.395 34.2497 187.723 30.4883C193.17 32.5346 198.616 34.5791 204.063 36.6254C199.574 40.1445 191.338 47.1401 186.912 39.8059Z" fill="#F2CC93"/>
<path fill-rule="evenodd" clip-rule="evenodd" d="M198.431 1.84922C195.199 1.82701 185.463 1.87142 184.902 14.4583C184.343 27.0453 186.143 31.2304 187.617 33.1602C189.503 35.6283 192.581 38.387 200.383 39.6618C204.965 39.5508 205.809 36.8439 207.33 34.2074C208.543 32.1037 210.932 27.8649 211.154 15.2687C211.373 2.67071 201.657 2.02683 198.431 1.84922Z" fill="#F8E4BD"/>
<path fill-rule="evenodd" clip-rule="evenodd" d="M197.309 20.0867C197.926 20.1108 198.429 20.7454 198.433 21.504C198.437 22.2626 197.938 22.8584 197.32 22.8343C196.701 22.8103 196.199 22.1756 196.196 21.417C196.192 20.6585 196.69 20.0608 197.309 20.0867Z" fill="#064C6F"/>
<path fill-rule="evenodd" clip-rule="evenodd" d="M207.478 20.6565C206.86 20.6417 206.319 21.2449 206.269 22.0016C206.219 22.7583 206.678 23.3837 207.297 23.3985C207.915 23.4133 208.456 22.8102 208.506 22.0534C208.556 21.2948 208.097 20.6695 207.478 20.6565Z" fill="#064C6F"/>
<path d="M203.241 28.7134C203.07 28.7134 202.957 28.7023 202.948 28.7023L203.009 28.0733C203.024 28.0751 204.63 28.2157 204.746 27.2869C204.785 26.9817 204.719 26.1047 204.645 25.0889C204.507 23.2387 204.319 20.7039 204.554 19.0998C204.706 18.0526 205.715 17.3588 206.1 17.3477L206.121 17.9804C206.126 17.9804 206.132 17.9804 206.137 17.9786C205.978 18.0119 205.283 18.4837 205.182 19.1905C204.958 20.7261 205.143 23.2202 205.278 25.0426C205.363 26.1787 205.424 27.0002 205.378 27.3665C205.296 28.0122 204.819 28.4637 204.033 28.6357C203.733 28.6986 203.446 28.7134 203.241 28.7134Z" fill="#064C6F"/>
<path d="M202.833 32.7799C200.95 32.7799 199.902 31.9658 199.839 31.9159L200.233 31.4219C200.315 31.4866 202.272 32.9742 205.771 31.4996L206.017 32.0824C204.782 32.6004 203.717 32.7799 202.833 32.7799Z" fill="#064C6F"/>
<path fill-rule="evenodd" clip-rule="evenodd" d="M184.52 24.6474C184.689 24.5428 184.912 24.5958 185.016 24.7657L189.144 31.473C189.249 31.6429 189.196 31.8653 189.026 31.9699C188.856 32.0744 188.633 32.0214 188.529 31.8516L184.401 25.1442C184.297 24.9744 184.35 24.7519 184.52 24.6474Z" fill="#064C6F"/>
<path d="M199.59 17.8826C198.277 17.5125 196.19 17.3478 195.531 17.5606L195.336 16.9593C196.19 16.6836 198.455 16.9056 199.763 17.2738L199.59 17.8826Z" fill="#064C6F"/>
<path d="M210.047 18.4481C209.434 18.1224 207.352 17.9171 205.995 18.0503L205.934 17.4212C207.284 17.2898 209.554 17.4693 210.345 17.8912L210.047 18.4481Z" fill="#064C6F"/>
<path fill-rule="evenodd" clip-rule="evenodd" d="M189.653 10.5769C188.484 11.2282 190.421 21.1638 185.217 20.2923C182.097 14.9434 181.821 8.40661 186.378 6.0106C187.473 1.4554 192.092 -0.224586 197.833 0.276819C201.146 0.565451 204.654 3.77555 208.421 4.01423C214.308 4.38797 215.923 8.03102 213.653 11.169C212.666 12.5326 209.562 12.6399 208.247 12.0811C206.413 11.304 201.265 14.3606 197.714 14.0275C193.671 13.6482 192.392 11.4206 189.653 10.5769Z" fill="#064C6F"/>
<path d="M195.046 15.695C192.918 15.1788 191.042 13.6653 189.899 11.545C188.736 9.38579 188.479 6.87877 189.212 4.83984L189.806 5.05262C189.134 6.92502 189.377 9.23962 190.456 11.2434C191.514 13.2065 193.24 14.6034 195.194 15.0789L195.046 15.695Z" fill="#064C6F"/>
<path fill-rule="evenodd" clip-rule="evenodd" d="M185.71 19.9351C185.325 19.1673 184.845 18.5363 183.863 18.2977C182.882 18.059 181.071 18.5067 180.989 21.3061C180.906 24.1054 183.169 26.5829 184.656 26.2961C186.143 26.0093 185.71 19.9351 185.71 19.9351Z" fill="#F8E4BD"/>
<path d="M184.81 21.2767L184.336 21.2619V21.2711C184.317 21.1342 183.902 20.5014 183.297 20.2776C182.908 20.1351 182.56 20.2073 182.232 20.4996L181.915 20.1462C182.41 19.7058 183.01 19.6152 183.602 19.8909C184.256 20.1962 184.821 20.9196 184.81 21.2767Z" fill="#064C6F"/>
<path d="M200.557 39.6771C192.549 38.369 189.421 35.4513 187.591 33.0553C186.456 31.5677 185.708 29.5158 185.241 26.5999L185.865 26.5C186.31 29.2698 187.039 31.2883 188.095 32.6723C189.855 34.9758 192.871 37.7825 200.659 39.0536L200.557 39.6771Z" fill="#064C6F"/>
<path fill-rule="evenodd" clip-rule="evenodd" d="M199.861 143.043L202.161 235.261L182.619 235.818C180.126 207.068 177.633 171.792 175.14 143.041C173.859 133.809 182.35 130.937 186.851 131.604C190.755 132.183 198.557 133.755 199.861 143.043Z" fill="#229BD8"/>
<path d="M211.715 206.684C211.708 203.094 211.691 199.542 211.675 196.108C211.591 178.677 211.519 163.622 212.634 152.327C213.873 139.779 216.516 133.468 220.955 132.465L221.094 133.081C216.958 134.013 214.471 140.149 213.264 152.388C212.153 163.652 212.225 178.69 212.308 196.104C212.325 199.54 212.341 203.093 212.349 206.682L211.715 206.684Z" fill="#064C6F"/>
<path d="M182.248 235.238C181.021 221.027 179.77 204.989 178.563 189.481C177.337 173.734 176.068 157.45 174.822 143.068C174.333 139.551 175.226 136.544 177.404 134.389C180.122 131.697 184.228 130.896 186.895 131.29C189.095 131.615 191.947 132.195 194.498 133.788C197.685 135.78 199.596 138.879 200.172 142.996L200.176 143.031L201.02 176.868L200.387 176.884L199.544 143.066C198.346 134.585 191.699 132.641 186.802 131.915C184.287 131.545 180.413 132.298 177.85 134.837C175.791 136.876 174.983 139.621 175.452 142.996C176.702 157.396 177.968 173.682 179.195 189.429C180.402 204.937 181.65 220.973 182.878 235.182L182.248 235.238Z" fill="#064C6F"/>
<path fill-rule="evenodd" clip-rule="evenodd" d="M185.741 19.2821C185.89 19.1504 186.119 19.165 186.25 19.3147L192.99 26.5447C193.122 26.6944 193.108 26.9226 192.958 27.0544C192.808 27.1861 192.58 27.1716 192.448 27.0218L185.708 19.7918C185.576 19.6421 185.591 19.4139 185.741 19.2821Z" fill="#064C6F"/>
<path d="M187.289 31.1499C188.512 29.6822 189.318 28.6312 189.772 27.8037C190.12 27.1692 190.991 26.6654 191.708 26.7566C196.194 27.3265 201.791 22.8446 203.644 23.7712C205.295 24.5967 208.804 25.4913 210.351 25.3193C210.351 30.3068 208.144 38.8891 200.703 38.8891C192.964 38.8891 188.664 33.9017 187.289 31.1499Z" fill="#229BD8"/>
<path fill-rule="evenodd" clip-rule="evenodd" d="M153.231 108.617C153.074 125.894 176.283 134.692 181.072 133.761L182.382 125.863C182.382 125.863 181.415 125.417 179.941 124.607C174.242 121.471 173.468 115.518 167.177 109.62L153.231 108.617Z" fill="#F8E4BD"/>
<path fill-rule="evenodd" clip-rule="evenodd" d="M188.588 124.398C188.984 124.431 194.453 126.972 194.453 126.972L198.507 133.14C198.507 133.14 196.362 132.565 195.744 132.095C195.125 131.625 193.994 129.642 193.994 129.642L191.066 128.663L192.809 130.977C192.809 130.977 197.027 138.036 197.326 138.299C197.622 138.561 195.585 138.375 194.727 137.666C193.868 136.957 191.797 134.299 191.797 134.299C191.797 134.299 193.812 138.367 194.01 138.861C193.677 139.092 192.79 138.978 192.229 138.534L192.296 138.878C192.296 138.878 190.868 139.018 189.556 138.254C188.245 137.49 187.741 136.591 187.741 136.591C187.741 136.591 184.878 135.777 184.417 135.581C183.956 135.383 181.552 134.817 180.546 134.443C178.067 133.521 179.002 127.316 181.552 125.815C183.041 124.94 186.643 124.237 188.588 124.398Z" fill="#F8E4BD"/>
<path d="M191.497 134.403C191.494 134.394 191.142 133.395 190.556 132.39C189.971 131.386 189.206 130.492 189.199 130.483L189.679 130.07C189.712 130.109 190.488 131.016 191.103 132.072C191.72 133.131 192.079 134.15 192.094 134.194L191.497 134.403Z" fill="#064C6F"/>
<path d="M191.758 137.544C191.301 137.08 190.644 136.277 190.114 135.631C189.743 135.18 189.425 134.79 189.277 134.64C189.025 134.384 187.443 133.548 186.504 133.082L186.786 132.516C187.206 132.725 189.329 133.792 189.727 134.196C189.895 134.366 190.208 134.749 190.603 135.232C191.123 135.866 191.77 136.658 192.208 137.102L191.758 137.544Z" fill="#064C6F"/>
<path fill-rule="evenodd" clip-rule="evenodd" d="M258.412 98.9343C252.074 117.492 230.826 135.529 230.826 135.529L225.678 127.359C229.254 124.486 241.238 100.938 245.657 94.2422L258.412 98.9343Z" fill="#F8E4BD"/>
<path fill-rule="evenodd" clip-rule="evenodd" d="M237.171 61.9811C243.125 69.8907 256.065 91.8063 258.28 99.2886L245.427 105.589C242.284 98.9481 229.665 83.3306 223.353 75.2563L224.637 52.8633C228.832 53.5423 234.278 58.1401 237.171 61.9811Z" fill="#F8E4BD"/>
<path fill-rule="evenodd" clip-rule="evenodd" d="M237.171 61.9796C239.462 65.025 242.79 70.1446 246.142 75.7174C245.138 78.1189 240.731 88.284 236.501 92.1842C232.484 86.8149 227.993 81.1588 224.668 76.9311C227.52 73.1826 232.613 66.52 236.691 61.3672C236.858 61.5726 237.017 61.7779 237.171 61.9796Z" fill="#F2CC93"/>
<path fill-rule="evenodd" clip-rule="evenodd" d="M219.899 128.731C219.531 128.878 215.056 132.904 215.056 132.904L212.995 139.977C212.995 139.977 214.873 138.8 215.327 138.171C215.779 137.542 216.277 135.316 216.277 135.316L218.785 133.525L217.801 136.243C217.801 136.243 215.844 144.214 215.636 144.553C215.429 144.891 217.32 144.116 217.931 143.189C218.542 142.262 219.74 139.117 219.74 139.117C219.74 139.117 219.01 143.59 218.964 144.12C219.349 144.242 220.164 143.873 220.568 143.287L220.607 143.635C220.607 143.635 222.011 143.352 223.037 142.238C224.065 141.124 224.281 140.119 224.281 140.119C224.281 140.119 226.776 138.506 227.157 138.182C227.541 137.858 229.667 136.615 230.517 135.964C232.613 134.36 229.902 128.709 227.028 128.025C225.352 127.625 221.707 128.008 219.899 128.731Z" fill="#F8E4BD"/>
<path d="M220.057 139.131L219.425 139.107C219.427 139.061 219.472 137.982 219.749 136.792C220.027 135.603 220.501 134.511 220.522 134.465L221.101 134.718C221.096 134.729 220.629 135.806 220.364 136.937C220.101 138.065 220.057 139.122 220.057 139.131Z" fill="#064C6F"/>
<path d="M220.729 142.203L220.168 141.91C220.455 141.359 220.84 140.417 221.15 139.659C221.387 139.08 221.574 138.623 221.685 138.41C221.948 137.907 223.659 136.267 224 135.945L224.435 136.404C223.676 137.124 222.411 138.386 222.246 138.702C222.148 138.889 221.957 139.357 221.737 139.897C221.42 140.669 221.029 141.627 220.729 142.203Z" fill="#064C6F"/>
<path fill-rule="evenodd" clip-rule="evenodd" d="M224.683 52.0573C228.97 51.8797 238.186 60.7736 246.933 71.9618C245.437 76.8759 237.93 85.8272 233.36 88.8597C233.36 88.8597 227.909 84.5135 223.163 78.5836C222.307 71.7823 222.474 53.6429 224.683 52.0573Z" fill="#BDE6FA"/>
<path fill-rule="evenodd" clip-rule="evenodd" d="M235.293 87.6193C238.09 84.9439 243.37 78.7401 247.107 71.7667C248.994 68.2458 244.303 65.4945 242.803 66.6768C242.803 66.6768 235.399 79.1268 231.013 83.2509C227.25 86.7904 231.558 91.1938 235.293 87.6193Z" fill="#BDE6FA"/>
<path fill-rule="evenodd" clip-rule="evenodd" d="M250.567 92.2651C250.113 91.9968 249.861 91.4436 249.818 91.1994C249.776 90.9551 254.391 90.2188 254.391 90.2188C254.391 90.2188 251.609 92.3262 250.567 92.2651Z" fill="#EDBA68"/>
<path fill-rule="evenodd" clip-rule="evenodd" d="M268.655 94.4821C268.453 94.2805 266.81 94.4359 266.368 93.9585C264.358 91.7957 260.473 87.4976 260.236 87.3459C259.947 87.1628 254.85 86.0508 254.85 86.0508L248.828 88.1767C248.828 88.1767 250.605 88.9019 251.278 88.9019C251.95 88.9019 253.769 88.1286 253.769 88.1286L256.297 88.987L253.885 89.6698C253.885 89.6698 247.283 92.3211 246.94 92.347C246.598 92.3729 248.098 93.3091 249.061 93.2703C250.024 93.2314 252.843 92.4858 252.843 92.4858C252.843 92.4858 249.324 94.2324 248.928 94.4673C249.035 94.8004 249.705 95.1871 250.326 95.1741L250.1 95.3776C250.1 95.3776 251.007 96.2213 252.311 96.3805C253.615 96.5396 254.433 96.1862 254.433 96.1862C254.433 96.1862 256.83 97.1242 257.252 97.2297C257.673 97.3352 259.569 98.4823 260.332 99.0096C261.095 99.5369 264.005 100.882 264.638 100.817C265.269 100.752 267.662 101.272 267.662 101.272L268.655 94.4821Z" fill="#BDE6FA"/>
<path d="M252.594 93.093L252.246 92.5657C252.285 92.5398 253.219 91.9273 254.383 91.4444C255.548 90.9615 256.752 90.7025 256.802 90.6914L256.934 91.3094C256.922 91.3112 255.735 91.5684 254.626 92.0291C253.517 92.4861 252.602 93.0856 252.594 93.093Z" fill="#064C6F"/>
<path d="M250.42 95.505L250.329 94.8796C250.967 94.789 251.993 94.5429 252.815 94.3449C253.441 94.1951 253.937 94.0767 254.182 94.0415C254.758 93.9583 257.167 94.406 257.643 94.4967L257.524 95.1183C256.461 94.9167 254.637 94.6151 254.271 94.6669C254.054 94.6983 253.548 94.8186 252.961 94.9592C252.128 95.159 251.087 95.4088 250.42 95.505Z" fill="#064C6F"/>
<path fill-rule="evenodd" clip-rule="evenodd" d="M272.961 77.4857C272.961 77.4857 269.153 74.0868 268.696 73.591C268.238 73.0951 266.381 70.4345 266.381 70.4345C266.381 70.4345 263.999 68.7971 263.612 68.5085C263.225 68.2199 260.758 65.8645 260.536 65.4927C259.89 64.5454 258.884 67.2929 261.306 69.6334C262.003 70.3069 262.193 70.7768 262.193 70.7768L255.25 68.9433C255.25 68.9433 253.237 70.7158 253.141 71.0063C253.045 71.2967 253.696 72.0405 253.972 72.0405C254.248 72.0405 253.458 72.4587 253.285 73.3542C253.204 73.7686 253.783 74.4439 254.408 74.8288C254.408 74.8288 253.704 75.5633 253.719 75.9352C253.733 76.3071 254.828 77.2433 254.828 77.2433C254.828 77.2433 254.013 77.8261 254.03 78.4737C254.045 79.1231 254.917 79.8243 254.917 79.8243L255.76 79.7799L264.499 81.471L271.487 85.2066L272.961 77.4857Z" fill="#BDE6FA"/>
<path d="M258.278 79.5105C258.256 79.5105 258.234 79.5105 258.213 79.5087L258.251 78.8777C258.708 78.9055 259.762 78.5281 260.099 78.2838C259.84 78.0877 259.351 77.8546 259.03 77.7232L254.815 77.5567L254.839 76.9258L259.164 77.096L259.214 77.1164C259.327 77.1608 260.332 77.5678 260.69 77.9711C260.816 78.1136 260.841 78.3042 260.756 78.48C260.495 79.0184 258.93 79.5105 258.278 79.5105Z" fill="#064C6F"/>
<path d="M259.877 77.7126L259.701 77.1057C260.365 76.9151 261.167 76.46 261.18 76.2676C260.94 75.8809 260.108 75.4849 259.773 75.348L254.395 75.1426L254.419 74.5117L259.902 74.7208L259.952 74.7393C260.09 74.793 261.308 75.2759 261.714 75.9271C261.825 76.1048 261.843 76.312 261.767 76.5081C261.49 77.2297 259.893 77.707 259.877 77.7126Z" fill="#064C6F"/>
<path d="M256.069 75.1918L255.895 74.5831C256.706 74.35 257.506 74.004 257.652 73.8245C257.617 73.5211 257.036 72.7643 256.443 72.5682L256.641 71.9688C257.426 72.2278 258.302 73.2435 258.286 73.8763C258.275 74.3296 257.528 74.7737 256.069 75.1918Z" fill="#064C6F"/>
<path fill-rule="evenodd" clip-rule="evenodd" d="M248.263 77.1146L249.331 78.4246C249.457 78.58 249.687 78.6022 249.841 78.4764L257.295 72.4207C257.449 72.2949 257.473 72.0654 257.347 71.9119L256.28 70.6019C256.154 70.4465 255.924 70.4243 255.769 70.5501L248.315 76.6058C248.161 76.7298 248.139 76.9592 248.263 77.1146Z" fill="#064C6F"/>
<path fill-rule="evenodd" clip-rule="evenodd" d="M260.015 68.1966L260.217 68.4445C260.241 68.4741 260.41 68.7961 260.38 68.8201L256.639 71.8471C256.61 71.8711 256.393 71.588 256.369 71.5584L256.167 71.3105C256.143 71.2809 256.148 71.2383 256.176 71.2143L259.917 68.1892C259.947 68.1633 259.991 68.167 260.015 68.1966Z" fill="#064C6F"/>
<path fill-rule="evenodd" clip-rule="evenodd" d="M261.067 69.5325L260.819 69.7342C260.79 69.7582 260.458 70.0136 260.436 69.984L258.832 68.0135C258.808 67.9839 259.101 67.6823 259.13 67.6583L259.378 67.4566C259.408 67.4325 259.451 67.4381 259.475 67.4659L261.078 69.4345C261.101 69.4659 261.097 69.5085 261.067 69.5325Z" fill="#064C6F"/>
<path fill-rule="evenodd" clip-rule="evenodd" d="M248.772 77.5914L248.974 77.8394C248.998 77.869 248.992 77.9115 248.965 77.9356L246.994 79.5379C246.964 79.5619 246.922 79.5564 246.898 79.5286L246.696 79.2807C246.672 79.2511 246.677 79.2085 246.705 79.1845L248.676 77.5822C248.705 77.5581 248.748 77.5618 248.772 77.5914Z" fill="#064C6F"/>
<path fill-rule="evenodd" clip-rule="evenodd" d="M254.132 74.9919L257.295 72.4201C257.449 72.2943 257.473 72.0649 257.347 71.9113L256.278 70.6013C256.152 70.4478 255.923 70.4237 255.769 70.5495L252.606 73.1213L254.132 74.9919Z" fill="white"/>
<path d="M254.382 72.4125C254.226 72.4125 254.059 72.3922 253.887 72.3441C253.17 72.1461 252.869 71.2765 252.835 71.1766L253.437 70.9805C253.496 71.1581 253.722 71.641 254.054 71.7335C254.748 71.9241 255.269 71.4449 255.411 71.2932L255.873 71.7261C255.702 71.9074 255.158 72.4125 254.382 72.4125Z" fill="#064C6F"/>
<path d="M264.612 76.8155C262.556 75.637 261.641 73.6776 261.895 70.9911C261.901 70.9263 261.906 70.8764 261.908 70.8431C261.866 70.7357 261.604 70.3916 261.34 70.0956L261.81 69.6719C262.06 69.9476 262.486 70.4545 262.536 70.7431C262.549 70.8135 262.542 70.8875 262.527 71.0503C262.299 73.4685 263.106 75.2225 264.929 76.266L264.612 76.8155Z" fill="#064C6F"/>
<path fill-rule="evenodd" clip-rule="evenodd" d="M308.014 104.599C291.301 102.423 270.744 87.2146 270.744 87.2146L272.959 77.4844C272.959 77.4844 303.513 91.2591 309.906 93.8383L308.014 104.599Z" fill="white"/>
<path d="M308.273 104.951L307.973 104.912C291.372 102.751 270.763 87.6204 270.555 87.4687L270.388 87.3465L272.735 77.0391L273.089 77.1982C273.394 77.3369 303.711 91.0007 310.023 93.5466L310.26 93.6428L308.273 104.951ZM271.1 87.0801C273.079 88.5122 292.159 102.072 307.756 104.243L309.553 94.0332C303.148 91.417 276.569 79.4536 273.185 77.929L271.1 87.0801Z" fill="#064C6F"/>
<path d="M315.418 165.734H309.732V229.061H315.418V165.734Z" fill="#BDE6FA"/>
<path d="M336.597 228.742H291.449V229.375H336.597V228.742Z" fill="#064C6F"/>
<path fill-rule="evenodd" clip-rule="evenodd" d="M334.599 240.551C336.764 240.551 338.531 238.786 338.531 236.623C338.531 234.46 336.764 232.695 334.599 232.695C332.434 232.695 330.667 234.459 330.667 236.623C330.669 238.786 332.434 240.551 334.599 240.551Z" fill="#BDE6FA"/>
<path fill-rule="evenodd" clip-rule="evenodd" d="M318.594 240.551C320.759 240.551 322.526 238.786 322.526 236.623C322.526 234.46 320.759 232.695 318.594 232.695C316.429 232.695 314.662 234.459 314.662 236.623C314.664 238.786 316.429 240.551 318.594 240.551Z" fill="#BDE6FA"/>
<path fill-rule="evenodd" clip-rule="evenodd" d="M271.159 136.871L301.665 216.41L293.24 221.507L253.35 151.68L251.841 140.007L271.159 136.871Z" fill="#F8E4BD"/>
<path fill-rule="evenodd" clip-rule="evenodd" d="M306.174 226.394L306.454 230.806L293.79 240.786L292.425 238.381L297.376 228.656L289.103 214.358L299.424 211.453L306.174 226.394Z" fill="#F8E4BD"/>
<path fill-rule="evenodd" clip-rule="evenodd" d="M309.473 230.768L295.362 241.387L292.423 238.384C293.988 239.205 304.4 231.372 305.202 229.12L306.173 226.395L309.473 230.768Z" fill="#064C6F"/>
<path fill-rule="evenodd" clip-rule="evenodd" d="M295.364 241.386L286.427 242.383C286.427 242.383 285.728 241.16 287.371 240.479L292.425 238.383L295.364 241.386Z" fill="#064C6F"/>
<path fill-rule="evenodd" clip-rule="evenodd" d="M272.472 144.157L280.052 218.306L269.299 216.731L250.752 151.234L251.041 142.137L272.472 144.157Z" fill="#F8E4BD"/>
<path fill-rule="evenodd" clip-rule="evenodd" d="M282.065 230.591L281.221 234.934L266.446 241.397L265.732 238.725L272.979 230.564L268.588 214.641L279.309 214.434L282.065 230.591Z" fill="#F8E4BD"/>
<path fill-rule="evenodd" clip-rule="evenodd" d="M284.152 235.654L267.816 242.37L265.732 238.723C267.04 239.913 279.093 234.96 280.439 232.982L282.067 230.59L284.152 235.654Z" fill="#064C6F"/>
<path fill-rule="evenodd" clip-rule="evenodd" d="M267.816 242.369L258.825 242.377C258.825 242.377 258.28 241.135 259.973 240.588L265.732 238.723L267.816 242.369Z" fill="#064C6F"/>
<path fill-rule="evenodd" clip-rule="evenodd" d="M250.717 148.848L252.254 155.383C252.254 155.383 271.268 162.585 291.105 164.206C290.571 158.846 289.208 153.458 289.208 153.458L250.717 148.848Z" fill="#229BD8"/>
<path fill-rule="evenodd" clip-rule="evenodd" d="M277.576 194.088L274.259 161.645L279.024 162.586L277.576 194.088Z" fill="#F2CC93"/>
<path fill-rule="evenodd" clip-rule="evenodd" d="M289.663 150.298L289.863 153.534L249.945 148.735C249.166 144.709 248.454 140.041 247.925 135.695C246.68 125.472 248.847 122.578 254.06 121.818C271.891 119.217 291.058 115.276 307.864 113.455C309.628 107.586 295.902 92.5367 293.141 86.5606C290.015 82.3847 289.413 80.0405 290.789 74.9728C291.724 71.5258 297.391 63.4331 300.669 58.8483C305.39 59.7123 306.457 56.3209 314.059 49.8359C331.535 61.8271 332.924 93.164 335.237 113.29C336.848 125.561 339.978 154.641 289.663 150.298Z" fill="white"/>
<path d="M290.203 153.895L249.679 149.023L249.635 148.797C248.881 144.912 248.163 140.272 247.611 135.735C246.437 126.092 248.113 122.369 254.013 121.507C261.012 120.485 268.327 119.238 275.404 118.034C286.245 116.187 297.452 114.278 307.613 113.168C308.491 109.331 302.872 101.454 298.342 95.1044C295.911 91.6963 293.811 88.7508 292.866 86.7267C289.605 82.3639 289.116 79.9253 290.483 74.8928C291.401 71.5106 296.589 64.0118 300.411 58.6665L300.528 58.5037L300.726 58.5407C303.876 59.1161 305.328 57.6896 308.506 54.5609C309.873 53.2158 311.577 51.5395 313.853 49.5987L314.038 49.4414L314.238 49.5783C321.252 54.3907 326.309 62.637 329.7 74.7892C332.608 85.2132 333.797 96.6216 334.845 106.689C335.086 108.998 335.312 111.177 335.551 113.259C336.377 119.542 338.094 132.625 329.545 141.554C322.25 149.171 308.947 152.229 290.001 150.649L290.203 153.895ZM250.213 148.451L289.525 153.177L289.325 149.954L289.69 149.985C308.63 151.619 321.885 148.634 329.087 141.113C337.427 132.404 335.736 119.523 334.923 113.333C334.684 111.244 334.456 109.062 334.215 106.751C333.169 96.7104 331.986 85.3298 329.091 74.9575C325.774 63.07 320.863 54.9809 314.081 50.2351C311.912 52.0964 310.275 53.708 308.952 55.0087C305.776 58.1337 304.154 59.7341 300.813 59.1938C298.518 62.4039 292.073 71.4533 291.096 75.0556C289.775 79.9198 290.227 82.14 293.396 86.3714L293.429 86.4288C294.34 88.4011 296.535 91.478 298.859 94.7344C303.795 101.652 309.388 109.492 308.169 113.545L308.108 113.745L307.899 113.767C297.7 114.872 286.419 116.794 275.511 118.652C268.431 119.858 261.11 121.105 254.106 122.128C247.9 123.035 247.257 127.581 248.239 135.653C248.779 140.094 249.479 144.625 250.213 148.451Z" fill="#064C6F"/>
<path d="M301.094 146.832C295.594 145.091 276.789 138.63 265.714 128.624L266.138 128.156C277.119 138.077 295.816 144.499 301.285 146.231L301.094 146.832Z" fill="#064C6F"/>
<path d="M311.614 141.616C307.082 141.35 296.32 139.488 284.726 134.2L284.989 133.625C296.5 138.874 307.163 140.721 311.653 140.985L311.614 141.616Z" fill="#064C6F"/>
<path fill-rule="evenodd" clip-rule="evenodd" d="M314.682 50.233C311.73 44.3049 307.878 38.8431 310.615 26.7539C305.124 30.791 302.896 38.3732 297.403 42.4103C301.913 48.5548 299.509 60.2888 299.107 62.2297C303.313 62.5775 311.516 55.1823 314.682 50.233Z" fill="#F8E4BD"/>
<path fill-rule="evenodd" clip-rule="evenodd" d="M309.928 37.9727C309.719 36.5129 309.632 34.9236 309.712 33.1641L303.437 35.4454C301.691 38.0541 299.879 40.5926 297.405 42.4114C298.833 44.3559 299.568 46.8611 299.891 49.4366C302.767 51.7271 307.497 50.6318 309.162 48.5429C310.995 46.2431 311.332 42.0672 309.928 37.9727Z" fill="#F2CC93"/>
<path fill-rule="evenodd" clip-rule="evenodd" d="M287.095 14.4843C288.277 8.45824 299.613 5.53677 304.985 5.56267C316.044 5.61633 320.511 18.0071 326.004 19.8055C332.16 21.8222 331.678 29.1472 329.11 31.4192C326.543 33.6913 327.398 35.0419 326.169 38.2076C324.172 43.3438 319.377 46.7112 313.555 43.0126C311.071 41.4344 306.406 42.7665 306.406 42.7665C303.869 42.4261 305.037 45.4493 298.281 47.4957C294.022 48.7852 288.221 44.2819 289.062 39.6656C289.868 35.2418 288.092 30.6366 286.082 29.0306C283.425 28.3812 282.076 28.1629 280.891 26.1573C277.667 20.701 280.511 15.6925 287.095 14.4843Z" fill="#064C6F"/>
<path fill-rule="evenodd" clip-rule="evenodd" d="M285.212 17.4452C283.539 18.8292 282.504 24.1744 283.793 28.774C284.458 31.1459 286.106 31.2903 286.63 33.2459C286.701 33.9731 286.315 35.5272 285.827 37.259C285.371 38.8779 284.943 40.162 285.065 40.4414C285.39 41.1703 286.864 41.6125 287.71 41.4349C287.71 41.4349 288.666 42.9595 289.41 44.7449C290.182 46.6007 290.755 48.7303 291.236 49.3297C292.181 50.5046 292.779 50.5287 295.453 49.981C298.129 49.4333 305.85 46.0919 308.265 38.6541C310.68 31.2163 309.958 20.9698 306.387 17.1159C299.781 9.98519 292.121 11.7225 285.212 17.4452Z" fill="#F8E4BD"/>
<path d="M297.911 49.4761L297.672 48.8896C301.115 47.4946 303.524 45.7702 305.256 43.4648L305.761 43.8441C303.959 46.2457 301.465 48.0348 297.911 49.4761Z" fill="#064C6F"/>
<path fill-rule="evenodd" clip-rule="evenodd" d="M289.762 32.572C289.125 32.7293 288.747 33.4953 288.918 34.2816C289.086 35.068 289.74 35.5768 290.375 35.4195C291.01 35.2622 291.39 34.4962 291.22 33.7099C291.051 32.9236 290.397 32.4129 289.762 32.572Z" fill="#064C6F"/>
<path d="M288.534 44.1781L288.471 43.549C290.908 43.303 291.709 42.1947 291.714 42.1836L292.249 42.5203C292.242 42.5333 291.357 43.8932 288.534 44.1781Z" fill="#064C6F"/>
<path d="M287.049 30.6727L286.553 30.2805C286.603 30.2157 287.83 28.706 290.666 29.1889L290.558 29.8124C288.116 29.3961 287.092 30.6209 287.049 30.6727Z" fill="#064C6F"/>
<path fill-rule="evenodd" clip-rule="evenodd" d="M293.223 34.5887C291.936 35.3842 291.273 36.6442 291.742 37.4028C292.212 38.1614 293.636 38.1318 294.924 37.3362C296.211 36.5406 296.874 35.2806 296.405 34.5221C295.935 33.7635 294.511 33.7949 293.223 34.5887Z" fill="#E9B0B8"/>
<path fill-rule="evenodd" clip-rule="evenodd" d="M288.951 24.3505C285.98 21.4716 283.276 22.9092 283.238 25.2516C279.943 20.8999 285.758 12.2576 298.644 10.6905C311.986 9.06787 321.648 32.2287 319.324 40.7526C314.76 51.1193 301.415 45.8887 306.63 33.2593C305.013 29.2092 304.267 25.6031 303.539 25.8825C302.774 26.173 303.482 28.31 300.18 28.8928C297.074 29.4404 297.665 27.5458 295.672 26.1008C293.423 24.4671 291.14 26.4727 288.951 24.3505Z" fill="#064C6F"/>
<path fill-rule="evenodd" clip-rule="evenodd" d="M302.58 27.4983C302.806 26.6195 303.159 25.8646 304.126 25.4057C305.091 24.9469 307.073 25.0209 307.795 27.8998C308.515 30.7787 306.73 33.8316 305.119 33.8556C304.234 33.8686 302.698 32.7233 302.267 30.9896C301.913 29.5705 302.58 27.4983 302.58 27.4983Z" fill="#F8E4BD"/>
<path d="M303.834 28.6929C303.743 28.3339 304.159 27.4736 304.758 27.0203C305.31 26.6021 305.95 26.5633 306.563 26.9111L306.328 27.3237C305.913 27.0869 305.513 27.0906 305.137 27.333C304.572 27.6975 304.282 28.4468 304.297 28.5856L303.834 28.6929Z" fill="#064C6F"/>
<path fill-rule="evenodd" clip-rule="evenodd" d="M305.016 32.2076C304.579 32.3242 304.32 32.7719 304.436 33.2067C304.553 33.6434 305.001 33.9024 305.436 33.7858C305.874 33.6693 306.133 33.2215 306.016 32.7849C305.899 32.3501 305.453 32.0911 305.016 32.2076Z" fill="#E9B0B8"/>
<path d="M289.645 45.4919C289.295 45.4919 289.073 45.4068 289.053 45.3994L289.286 44.811C289.318 44.8221 290.06 45.0867 291.02 44.293L291.423 44.7796C290.721 45.3605 290.082 45.4919 289.645 45.4919Z" fill="#064C6F"/>
<path d="M327.046 17.8239C324.563 17.7536 322.785 15.8294 320.729 13.6017C316.923 9.47763 312.184 4.34517 300.172 6.93175L300.039 6.31379C312.405 3.65135 317.485 9.15385 321.194 13.1725C323.235 15.3835 324.846 17.1301 327.065 17.1911L327.046 17.8239Z" fill="#064C6F"/>
<path d="M332.589 29.5448L331.971 29.4079C332.38 27.5688 331.915 25.5373 330.699 23.8351C329.456 22.0959 327.606 20.9339 325.748 20.7249L325.819 20.0977C327.852 20.3271 329.869 21.5871 331.213 23.4687C332.536 25.3152 333.036 27.5318 332.589 29.5448Z" fill="#064C6F"/>
<path d="M327.089 123.672C326.861 123.672 326.589 123.618 326.269 123.476C325.104 122.958 323.609 121.805 321.879 120.469C318.129 117.575 312.986 113.61 307.876 113.77L307.856 113.137C307.962 113.133 308.067 113.131 308.173 113.131C313.408 113.131 318.516 117.072 322.266 119.968C323.965 121.278 325.431 122.41 326.526 122.897C326.817 123.026 327.217 123.132 327.469 122.91C327.789 122.626 327.828 121.89 327.569 121.032C326.841 118.626 323.411 114.258 315.184 113.137C313.162 112.861 310.703 112.291 310.458 111.142C310.408 110.905 310.419 110.447 311.06 110.051C312.519 109.15 317.264 108.885 321.62 112.354L321.226 112.848C317.301 109.725 312.806 109.716 311.392 110.589C311.258 110.672 311.038 110.837 311.075 111.011C311.151 111.366 312.118 112.08 315.268 112.51C318.909 113.005 322.087 114.215 324.459 116.01C326.313 117.413 327.665 119.176 328.172 120.848C328.513 121.975 328.408 122.924 327.885 123.383C327.741 123.513 327.482 123.672 327.089 123.672Z" fill="#064C6F"/>
<path fill-rule="evenodd" clip-rule="evenodd" d="M324.203 73.5299C323.384 82.3424 318.767 104.621 315.732 110.906C299.173 114.046 267.219 105.179 267.219 105.179L268.654 94.4816C268.654 94.4816 291.011 96.4557 304.701 97.5973C305.74 88.4462 306.416 76.6715 306.872 71.2245C307.19 67.4316 309.496 57.9734 317.208 58.4933C322.986 58.8818 324.781 67.3113 324.203 73.5299Z" fill="white"/>
<path d="M307.452 111.889C290.442 111.889 267.409 105.561 267.136 105.485L266.871 105.411L268.383 94.1398L268.685 94.1657C268.907 94.186 290.864 96.1232 304.422 97.2555C305.135 90.8779 305.687 83.144 306.091 77.4731C306.269 74.9717 306.423 72.8125 306.558 71.1973C306.954 66.4718 309.701 57.6686 317.229 58.1774C318.907 58.2902 320.353 59.0488 321.531 60.4309C323.281 62.4828 325.113 67.1546 324.518 73.56C323.7 82.3817 319.099 104.66 316.016 111.043L315.992 111.091L315.884 111.199L315.788 111.217C313.31 111.689 310.477 111.889 307.452 111.889ZM267.57 104.949C270.674 105.785 299.974 113.484 315.516 110.627C316.866 107.744 318.674 101.38 320.49 93.1C322.153 85.5215 323.487 77.8302 323.889 73.5026L324.204 73.5322L323.889 73.5026C324.428 67.6893 322.852 62.9546 321.05 60.8417C319.987 59.5946 318.686 58.9101 317.186 58.8083C310.138 58.3384 307.565 66.7401 307.187 71.2509C307.052 72.8624 306.899 75.0198 306.721 77.5194C306.31 83.2865 305.748 91.185 305.015 97.6329L304.98 97.9382L304.674 97.9123C292.001 96.8559 271.644 95.063 268.927 94.8243L267.57 104.949Z" fill="#064C6F"/>
<path d="M314.577 107.688C314.201 107.688 313.864 107.253 313.427 106.207C311.525 101.65 309.051 99.321 304.606 97.8982L304.798 97.2969C309.445 98.7826 312.029 101.214 314.012 105.965C314.245 106.526 314.414 106.805 314.516 106.94C314.584 106.585 314.586 105.732 314.334 104.459C313.916 102.348 312.903 99.7465 311.321 98.7733L311.653 98.2349C314.457 99.9593 315.451 105.752 315.12 107.133C315.016 107.565 314.788 107.673 314.618 107.688C314.603 107.688 314.59 107.688 314.577 107.688Z" fill="#064C6F"/>
<path d="M229.374 86.4513C229.213 85.0026 232.441 80.6361 233.836 78.8266C236.073 75.9236 239.11 72.4378 240.853 71.1945C241.09 71.0261 241.471 70.6931 241.375 70.3656C241.273 70.0215 240.631 69.6459 239.597 69.5978C237.236 69.4867 233.806 71.0354 231.911 75.7645C231.306 77.278 230.804 78.4177 230.421 79.1504C229.998 79.9571 229.7 80.3678 229.317 80.2272C229.045 80.1273 228.706 80.0033 229.489 76.647C229.956 74.6488 230.704 72.0585 231.545 69.5386L232.145 69.7384C230.613 74.3306 229.761 77.9311 229.645 79.2484C229.922 78.7785 230.434 77.7535 231.324 75.5295C233.341 70.4933 237.056 68.8484 239.627 68.9668C240.875 69.026 241.777 69.4923 241.983 70.188C242.071 70.4896 242.092 71.089 241.221 71.7107C237.884 74.0919 229.811 84.651 230.004 86.3847L229.374 86.4513Z" fill="#064C6F"/>
<path d="M177.354 105.615L176.898 105.176C180.267 101.677 187.488 96.778 195.297 92.6965C207.48 86.3299 212.312 86.3447 213.823 86.6463L213.699 87.2661C210.688 86.6648 203.919 88.9036 195.59 93.2552C187.956 97.2461 180.628 102.212 177.354 105.615Z" fill="#064C6F"/>
<path d="M302.345 27.0195L299.249 35.2747" stroke="#064C6F" stroke-width="0.7" stroke-linecap="round"/>
<path d="M309.052 35.2773L303.893 39.4049" stroke="#064C6F" stroke-width="0.7" stroke-linecap="round"/>
<path d="M284.803 41.4654C284.569 39.831 284.975 38.1978 285.834 36.306L299.249 34.2422C300.9 37.5442 303.033 38.5417 304.408 38.8857L305.44 44.0452C304.237 46.4529 297.185 50.7525 294.606 50.7525C287.364 50.7525 285.319 45.0771 284.803 41.4654Z" fill="#229BD8"/>
<g clip-path="url(#clip0)">
<path d="M114.033 242.69H108.138V159.75H114.033V242.69ZM108.785 242.022H113.385V160.419H108.785V242.022Z" fill="#BDE6FA"/>
<path d="M49.7171 242.69H43.8226V159.75H49.7171V242.69ZM44.471 242.022H49.0706V160.419H44.471V242.022Z" fill="#BDE6FA"/>
<path fill-rule="evenodd" clip-rule="evenodd" d="M45.0474 146.441C68.5039 146.441 91.9604 146.441 115.419 146.441C119.939 146.441 123.638 151.413 123.638 157.491V161.172C123.638 162.63 122.75 163.824 121.664 163.824C94.0441 163.824 66.4222 163.824 38.8022 163.824C37.7177 163.824 36.8286 162.63 36.8286 161.172V157.491C36.8304 151.413 40.5275 146.441 45.0474 146.441Z" fill="#BDE6FA"/>
<path fill-rule="evenodd" clip-rule="evenodd" d="M52.7108 76.9805H107.756C116.181 76.9805 123.073 84.0973 123.073 92.7937V115.624C123.073 124.322 116.179 131.437 107.756 131.437H52.7108C44.2853 131.437 37.3936 124.32 37.3936 115.624V92.7937C37.3936 84.0973 44.2872 76.9805 52.7108 76.9805Z" fill="#BDE6FA"/>
<path fill-rule="evenodd" clip-rule="evenodd" d="M86.1854 3.052C82.3784 -1.55554 71.5602 0.0494665 67.5351 3.32603C59.265 10.0553 62.2208 16.6261 57.115 21.627C54.7091 23.9836 51.1561 23.3397 47.533 27.5557C44.8123 30.7207 47.3775 34.5786 45.5612 38.2036C44.1374 41.0456 39.2572 39.5639 36.5555 47.2621C35.1942 51.1376 37.1091 58.961 45.6996 59.7009C52.7658 60.3096 58.9939 52.8268 60.4121 51.6426C66.2724 46.7493 77.7504 53.4688 83.2183 37.7808C84.5435 35.2245 86.6878 37.5714 86.6878 37.5714C111.297 28.8104 101.283 -2.70449 86.1854 3.052Z" fill="#064C6F"/>
<path fill-rule="evenodd" clip-rule="evenodd" d="M100.206 58.5547C102.379 61.43 103.797 62.2912 108.739 78.0849C113.682 93.8785 114.987 95.646 115.597 97.9263C116.342 100.7 111.968 101.273 106.472 103.536C103.099 104.924 96.9297 79.3395 96.2642 76.3761C95.1096 71.2479 89.0237 58.8326 100.206 58.5547Z" fill="#F8E4BD"/>
<path fill-rule="evenodd" clip-rule="evenodd" d="M98.4161 52.6719C104.318 56.6629 108.942 70.462 112.85 86.1206L99.5043 91.8282C97.1913 83.9069 95.9419 76.3673 95.9419 76.3673C95.9419 76.3673 94.992 64.4804 98.4161 52.6719Z" fill="#229BD8"/>
<path d="M99.2977 92.2775L99.1953 91.9232C96.9031 84.0724 95.6366 76.4995 95.6234 76.4232L95.6196 76.3938C95.6101 76.2744 94.702 64.3073 98.1052 52.5732L98.2303 52.1445L98.5943 52.3892C103.662 55.8165 108.292 66.5074 113.165 86.0337L113.235 86.3155L99.2977 92.2775ZM96.2642 76.3253C96.3268 76.6992 97.544 83.861 99.7129 91.3771L112.467 85.9221C109.481 73.9981 104.838 57.9128 98.6 53.2093C95.4338 64.4913 96.2282 75.8556 96.2642 76.3253Z" fill="#064C6F"/>
<path fill-rule="evenodd" clip-rule="evenodd" d="M70.4889 146.795L110.091 146.44C109.704 136.826 114.152 125.133 110.372 122.107C106.722 120.719 97.3297 122.142 93.6212 121.555C93.242 119.713 93.189 119.147 93.0316 118.486C82.2722 117.006 67.0706 119.159 57.1871 118.832C55.1698 124.06 44.6777 146.693 70.4889 146.795Z" fill="#229BD8"/>
<path fill-rule="evenodd" clip-rule="evenodd" d="M96.8927 237.84V236.352L97.7326 219.605H105.546L104.706 233.763C104.901 234.395 106.132 235.877 107.142 237.004C107.766 237.699 108.304 238.257 108.465 238.398C110.251 239.962 111.315 239.848 111.315 241.86H96.8927V237.84Z" fill="#F8E4BD"/>
<path fill-rule="evenodd" clip-rule="evenodd" d="M111.314 241.859C111.314 239.845 110.251 239.959 108.465 238.397C108.303 238.256 107.765 237.698 107.141 237.003C106.131 235.876 108.076 239.336 107.881 238.704H102.464L96.8899 236.352V241.859H111.314ZM111.314 241.859H96.8918V242.353H111.314V241.859Z" fill="#064C6F"/>
<path fill-rule="evenodd" clip-rule="evenodd" d="M118.608 133.92L108.33 222.36H97.0624C97.4984 188.919 97.7165 167.361 98.1525 133.92C99.5536 124.28 105.731 122.039 109.411 122.039C112.55 122.039 119.706 124.728 118.608 133.92Z" fill="#229BD8"/>
<path fill-rule="evenodd" clip-rule="evenodd" d="M93.0316 118.485C91.5509 109.274 91.9718 90.8577 93.4222 80.574C95.4243 77.3639 97.4056 75.7824 98.1507 72.9541C98.9621 69.8752 97.9952 64.6237 97.4264 62.7055C97.9194 60.1806 98.5602 55.4576 98.8673 52.8622C94.283 48.2155 86.0811 44.2812 77.5305 44.2812C68.9798 44.2812 60.8254 48.603 56.241 53.2478C58.8062 74.9975 61.015 95.0073 57.1871 118.834C68.5134 118.834 81.73 118.485 93.0316 118.485Z" fill="#54BAED"/>
<path d="M38.8629 63.3896C38.842 63.3896 38.823 63.3896 38.8022 63.3896L38.8041 62.7202C38.8249 62.7202 38.8439 62.7202 38.8648 62.7202C47.9254 62.7202 50.557 58.1322 52.6747 54.4427C53.8369 52.4168 54.8418 50.667 56.6771 50.207L56.8287 50.8569C55.2589 51.2503 54.364 52.8103 53.2303 54.7832C51.1466 58.418 48.2932 63.3896 38.8629 63.3896Z" fill="#064C6F"/>
<path d="M102.559 28.6981L102.022 28.3223C103.857 25.5311 104.413 21.8494 103.545 18.2225C102.659 14.5192 100.426 11.3699 97.5705 9.79619L97.8757 9.20703C100.89 10.8688 103.245 14.1786 104.174 18.062C105.086 21.8748 104.496 25.7503 102.559 28.6981Z" fill="#064C6F"/>
<path fill-rule="evenodd" clip-rule="evenodd" d="M71.5469 44.3306C71.5469 48.7815 80.6322 65.4755 84.208 64.9471C87.0215 64.5302 84.5094 47.8361 84.5094 44.3306C84.5094 39.5136 84.5094 36.2821 84.5094 31.4651C80.1886 31.4651 75.8678 24.0742 71.5469 24.0742C71.5469 28.8912 71.5469 39.5136 71.5469 44.3306Z" fill="#F8E4BD"/>
<path fill-rule="evenodd" clip-rule="evenodd" d="M84.5094 41.6051V34.9326L72.4684 31.7539L71.5469 34.2025C71.7005 35.1577 72.4513 40.4053 75.7597 43.2238C79.0662 46.0424 83.1008 43.5781 84.5094 41.6051Z" fill="#F2CC93"/>
<path fill-rule="evenodd" clip-rule="evenodd" d="M79.8605 4.83984C83.0116 4.87312 92.5045 5.07668 92.7946 16.4977C93.0847 27.9187 91.4731 31.7335 90.5839 33.8454C89.5658 36.2647 87.7059 39.4532 84.3539 39.5413C77.1342 39.7292 74.277 36.57 72.3413 34.4092C70.8283 32.72 68.4148 28.5567 68.4546 17.1318C68.4963 5.70694 76.7114 4.9475 79.8605 4.83984Z" fill="#F8E4BD"/>
<path fill-rule="evenodd" clip-rule="evenodd" d="M70.051 22.5834C69.759 21.8259 69.4045 21.2994 68.4887 21.1134C67.573 20.9255 65.9179 21.4266 65.952 24.1003C65.9842 26.774 68.1702 29.0484 69.5334 28.7137C70.8947 28.379 70.1894 23.2959 70.051 22.5834Z" fill="#F8E4BD"/>
<path fill-rule="evenodd" clip-rule="evenodd" d="M92.7718 20.8978C94.7664 10.616 91.1698 3.00983 80.1108 2.99221C69.0518 2.9746 66.6117 12.3561 68.4887 21.1131C72.929 22.0429 73.8751 20.8391 76.5881 16.6289C79.4472 12.1916 80.7421 8.56276 86.4337 8.43553C91.0124 8.33179 94.6412 16.0867 92.7718 20.8978Z" fill="#064C6F"/>
<path fill-rule="evenodd" clip-rule="evenodd" d="M76.5844 25.1405C78.0139 25.5672 78.9733 26.6183 78.7306 27.4873C78.4879 28.3564 77.1323 28.7165 75.7028 28.2898C74.2732 27.8631 73.3139 26.812 73.5566 25.943C73.7993 25.0739 75.1549 24.7138 76.5844 25.1405Z" fill="#E9B0B8"/>
<path fill-rule="evenodd" clip-rule="evenodd" d="M90.019 20.8752C89.4237 20.8869 88.9269 21.5074 88.9099 22.2629C88.8928 23.0165 89.3611 23.6193 89.9545 23.6076C90.5498 23.5958 91.0466 22.9754 91.0636 22.2198C91.0807 21.4663 90.6124 20.8634 90.019 20.8752Z" fill="#064C6F"/>
<path d="M68.9722 23.9363C68.9457 23.8052 68.5324 23.2199 67.9749 23.0438C67.6261 22.9322 67.319 23.0164 67.0384 23.2982L66.699 22.9381C67.1464 22.4898 67.7057 22.3783 68.2745 22.6229C68.8964 22.8911 69.4519 23.5683 69.4557 23.9167L68.9703 23.9226C68.9703 23.9265 68.9703 23.9304 68.9722 23.9363Z" fill="#064C6F"/>
<path fill-rule="evenodd" clip-rule="evenodd" d="M79.7695 20.9922C80.3649 20.9902 80.8749 21.599 80.9071 22.3545C80.9412 23.1081 80.4862 23.7207 79.8909 23.7246C79.2956 23.7266 78.7856 23.1178 78.7514 22.3643C78.7192 21.6068 79.1742 20.9941 79.7695 20.9922Z" fill="#064C6F"/>
<path d="M85.5976 28.8414C85.4782 28.8414 85.3929 28.8336 85.3644 28.8316L85.427 28.1661C85.7152 28.1936 86.21 28.1485 86.3522 27.9665C86.3712 27.9411 86.4318 27.8628 86.3579 27.6298C86.2536 27.303 85.7304 25.5668 85.6356 23.5175C85.5256 21.1217 86.0394 19.2956 87.1656 18.0898L87.632 18.5537C85.0687 21.2979 86.8945 27.1718 86.9741 27.4204C87.1258 27.898 86.9949 28.2092 86.8584 28.3834C86.5475 28.7807 85.937 28.8414 85.5976 28.8414Z" fill="#064C6F"/>
<path d="M85.7399 32.2373C84.8639 32.2373 83.7984 32.0455 82.5604 31.4779L82.8239 30.8672C86.1513 32.3978 88.0548 30.9631 88.1344 30.9005L88.5269 31.4309C88.4681 31.4798 87.4822 32.2373 85.7399 32.2373Z" fill="#064C6F"/>
<path d="M85.3569 34.0332C85.0061 34.0332 84.5852 33.9569 84.0999 33.7357L84.3634 33.125C85.4763 33.6378 86.1171 33.1681 86.1247 33.1641L86.5191 33.6946C86.4925 33.7142 86.0773 34.0332 85.3569 34.0332Z" fill="#064C6F"/>
<path d="M77.6632 18.5109L77.3864 17.9061C79.9478 16.6554 81.5138 17.8024 81.5783 17.8533L81.1972 18.3935C81.1441 18.3543 79.8587 17.4403 77.6632 18.5109Z" fill="#064C6F"/>
<path d="M91.7614 18.3468C89.5431 17.327 88.2786 18.2704 88.2255 18.3115L87.833 17.7792C87.8975 17.7283 89.437 16.546 92.0249 17.7361L91.7614 18.3468Z" fill="#064C6F"/>
<path d="M82.2854 40.0316C79.7411 39.8789 74.9027 38.7574 71.071 32.9676L71.6056 32.5898C75.28 38.1428 79.8966 39.2173 82.3215 39.3641L82.2854 40.0316Z" fill="#064C6F"/>
<path fill-rule="evenodd" clip-rule="evenodd" d="M57.8754 54.4844C54.986 55.1322 53.3498 56.8429 46.5794 72.4389C39.809 88.0369 39.4165 101.679 39.553 104.461C44.3953 105.183 45.7755 103.382 49.7437 100.758C53.5583 92.6424 59.504 78.1974 60.5505 75.6587C62.5507 70.8124 68.8415 56.7607 57.8754 54.4844Z" fill="#F8E4BD"/>
<path fill-rule="evenodd" clip-rule="evenodd" d="M47.0694 68.7978C44.6255 74.6443 42.3921 81.1329 40.6592 86.7582L55.2333 90.9606C58.8432 83.1274 61.7458 76.4823 63.5944 70.9978C67.0526 60.7454 66.7435 53.7714 61.998 52.1684C56.3538 50.2619 52.6283 55.5017 47.0694 68.7978Z" fill="#229BD8"/>
<path d="M55.4106 91.3588L40.2507 86.9881L40.3531 86.6573C41.7599 82.0948 44.0142 75.2676 46.7746 68.6656C52.1174 55.8842 55.9548 49.7774 62.0995 51.8502C63.5575 52.3415 64.6476 53.326 65.3416 54.7705C66.9057 58.0295 66.4071 63.6783 63.9025 71.1083C61.8815 77.1016 58.5351 84.5786 55.5282 91.1043L55.4106 91.3588ZM41.0717 86.5301L55.058 90.5641C58.027 84.1167 61.3051 76.7748 63.2882 70.8891C65.734 63.6333 66.2421 58.1645 64.7576 55.068C64.1433 53.7899 63.1821 52.9208 61.8947 52.4863C56.2259 50.5721 52.5535 56.5204 47.3662 68.9298C44.6853 75.3518 42.4785 81.9871 41.0717 86.5301Z" fill="#064C6F"/>
<path fill-rule="evenodd" clip-rule="evenodd" d="M66.3371 234.063L66.6689 232.464L69.035 214.781L77.434 216.643L75.6461 231.542C75.7144 232.266 76.7059 234.155 77.5421 235.605C78.0559 236.5 78.5109 237.23 78.6512 237.418C80.221 239.524 81.3908 239.655 80.9396 241.82L65.4365 238.383L66.3371 234.063Z" fill="#F8E4BD"/>
<path fill-rule="evenodd" clip-rule="evenodd" d="M80.9413 241.823C81.3906 239.658 80.2227 239.527 78.6529 237.421C78.5107 237.231 78.0575 236.503 77.5418 235.608C76.7076 234.156 78.0253 238.339 77.9571 237.615L72.1346 236.325L66.6687 232.469L65.4382 238.39L80.9413 241.823ZM80.9413 241.823L80.8313 242.353L65.3282 238.918L65.4382 238.388L80.9413 241.823Z" fill="#064C6F"/>
<path fill-rule="evenodd" clip-rule="evenodd" d="M97.5061 134.949L78.9998 220.952L67.9825 218.509C71.9033 185.176 74.2941 166.062 78.213 132.729C79.434 123.598 87.1277 120.146 91.0845 121.022C95.394 121.978 99.5404 125.055 97.5061 134.949Z" fill="#229BD8"/>
<path d="M84.043 199.061L83.4098 198.916L97.1894 134.876C98.7972 127.051 96.7799 122.626 91.0182 121.349C88.9819 120.899 86.1892 121.676 83.9027 123.328C81.8304 124.828 79.2159 127.683 78.5353 132.774L77.8945 132.682C78.45 128.523 80.4521 125.008 83.5311 122.78C85.9579 121.024 88.9497 120.206 91.1547 120.694C97.2558 122.046 99.4987 126.863 97.8227 135.015L84.043 199.061Z" fill="#064C6F"/>
<path d="M110.264 208.524L109.621 208.444L118.285 133.878C118.691 130.48 117.993 127.704 116.211 125.624C114.296 123.388 111.344 122.369 109.412 122.369C108.055 122.369 104.597 122.711 101.825 125.88L101.343 125.432C104.29 122.063 107.968 121.699 109.412 121.699C111.011 121.699 114.344 122.431 116.697 125.179C118.606 127.409 119.357 130.362 118.928 133.956L110.264 208.524Z" fill="#064C6F"/>
<path d="M71.198 86.1711L71.0331 85.5251C71.5488 85.3862 83.6979 82.1038 87.9505 81.9922L87.9676 82.6616C83.7889 82.7673 71.3232 86.1358 71.198 86.1711Z" fill="#064C6F"/>
<path fill-rule="evenodd" clip-rule="evenodd" d="M49.6621 100.758C57.9796 104.864 66.1833 111.466 74.406 116.859C76.5749 119.679 75.7597 119.352 73.003 122.858C65.8231 118.996 41.8812 111.887 39.5037 104.326C42.1599 102.86 47.1349 99.3799 49.6621 100.758Z" fill="#F8E4BD"/>
<path fill-rule="evenodd" clip-rule="evenodd" d="M103.733 95.8157C96.2552 101.304 90.0867 109.579 82.9253 116.317C81.2791 119.471 82.0252 119.008 85.3488 121.981C91.749 116.932 114.093 105.773 115.121 97.9139C112.249 96.9317 105.983 94.0179 103.733 95.8157Z" fill="#F8E4BD"/>
<path fill-rule="evenodd" clip-rule="evenodd" d="M72.4133 116.598C72.5328 116.531 74.4818 116.968 74.6866 116.848C76.6943 115.672 81.9101 112.431 82.1888 112.352C82.4959 112.264 87.3135 112.675 87.3135 112.675L92.0704 116.308C92.0704 116.308 90.2977 116.474 89.7042 116.286C89.1089 116.099 87.7078 114.881 87.7078 114.881L85.2355 114.957L87.1864 116.257C87.1864 116.257 92.3149 120.534 92.6107 120.655C92.9065 120.775 91.3234 121.211 90.4816 120.906C89.6398 120.602 87.3438 119.127 87.3438 119.127C87.3438 119.127 89.9867 121.712 90.273 122.039C90.0872 122.313 89.3876 122.479 88.8435 122.293L88.9895 122.542C88.9895 122.542 87.9562 123.059 86.758 122.84C85.5597 122.62 84.9322 122.066 84.9322 122.066C84.9322 122.066 82.5547 122.252 82.1527 122.231C81.7508 122.209 79.7601 122.728 78.941 122.996C78.122 123.264 75.1776 123.681 74.6354 123.444C74.0931 123.208 73.0049 122.859 73.0049 122.859L72.4133 116.598Z" fill="#F8E4BD"/>
<path d="M87.3723 119.773C87.3666 119.765 86.7201 118.961 85.8669 118.233C85.0118 117.502 84.0316 116.937 84.0222 116.931L84.3369 116.348C84.3786 116.371 85.3759 116.949 86.2783 117.72C87.1827 118.491 87.8425 119.315 87.8709 119.35L87.3723 119.773Z" fill="#064C6F"/>
<path d="M88.652 122.6C88.087 122.326 87.2339 121.806 86.5475 121.389C86.0849 121.107 85.6489 120.843 85.4668 120.752C85.1749 120.612 83.5406 120.377 82.4713 120.255L82.5414 119.59C82.9888 119.641 85.2469 119.907 85.7417 120.146C85.9503 120.248 86.3598 120.496 86.8755 120.809C87.5505 121.22 88.3904 121.731 88.9269 121.991L88.652 122.6Z" fill="#064C6F"/>
<path fill-rule="evenodd" clip-rule="evenodd" d="M69.4428 19.5048C69.6051 19.3889 69.8307 19.4265 69.9466 19.5888L75.1061 26.812C75.2221 26.9743 75.1845 27.1999 75.0222 27.3158C74.8599 27.4318 74.6343 27.3942 74.5184 27.2319L69.3589 20.0086C69.2429 19.8463 69.2805 19.6207 69.4428 19.5048Z" fill="#064C6F"/>
<path fill-rule="evenodd" clip-rule="evenodd" d="M68.3204 28.8835C68.431 28.7176 68.6553 28.6727 68.8212 28.7834L71.9169 30.8471C72.0829 30.9578 72.1277 31.182 72.0171 31.348C71.9065 31.5139 71.6822 31.5588 71.5163 31.4481L68.4206 29.3844C68.2546 29.2737 68.2098 29.0495 68.3204 28.8835Z" fill="#064C6F"/>
<path fill-rule="evenodd" clip-rule="evenodd" d="M68.593 26.1641C69.0367 26.1583 69.4007 26.5262 69.4045 26.9843C69.4102 27.4423 69.0537 27.8181 68.6101 27.822C68.1664 27.8279 67.8024 27.4599 67.7986 27.0019C67.7948 26.5458 68.1494 26.17 68.593 26.1641Z" fill="#E9B0B8"/>
<path d="M70.6847 31.1471C71.9313 29.6512 72.4249 28.4566 72.6203 27.5178C72.7678 26.8093 73.5094 26.3022 74.2273 26.3934C78.7125 26.9632 84.3099 22.4813 86.1631 23.4079C87.8141 24.2334 91.3226 25.128 92.8704 24.9561C92.8704 29.9435 91.013 38.9895 83.5834 39.4022C76.1537 39.815 72.0606 33.8988 70.6847 31.1471Z" fill="#229BD8"/>
</g>
<defs>
<clipPath id="clip0">
<rect width="166.715" height="242.495" fill="white" transform="translate(0 0.191406)"/>
</clipPath>
</defs>
</svg>
